<svg width="24" height="24" viewBox="0 0 24 24" fill="none" xmlns="http://www.w3.org/2000/svg">
<path fill-rule="evenodd" clip-rule="evenodd" d="M12.425 2.948L15.147 2.067C15.791 1.858 16.491 2.149 16.799 2.751L18.1 5.299C18.232 5.557 18.442 5.768 18.701 5.9L21.217 7.185C21.838 7.502 22.137 8.224 21.922 8.888L21.052 11.576C20.963 11.852 20.963 12.149 21.052 12.425L21.933 15.147C22.142 15.791 21.851 16.491 21.249 16.799L18.701 18.1C18.443 18.232 18.232 18.442 18.1 18.701L16.798 21.249C16.49 21.852 15.79 22.142 15.146 21.933L12.424 21.052C12.148 20.963 11.851 20.963 11.575 21.052L8.85298 21.933C8.20898 22.142 7.50898 21.851 7.20098 21.249L5.89998 18.701C5.76798 18.443 5.55798 18.232 5.29898 18.1L2.75098 16.798C2.14798 16.49 1.85798 15.79 2.06698 15.146L2.94798 12.424C3.03698 12.148 3.03698 11.851 2.94798 11.575L2.06698 8.854C1.85898 8.21 2.14898 7.509 2.75198 7.201L5.29898 5.9C5.55798 5.768 5.76798 5.558 5.89998 5.299L7.20198 2.751C7.50898 2.149 8.20998 1.859 8.85398 2.067L11.576 2.948C11.851 3.038 12.149 3.038 12.425 2.948V2.948Z" stroke="currentColor" stroke-width="1.5" stroke-linecap="round" stroke-linejoin="round" fill="none"/>
<path d="M9 15L15 9" stroke="currentColor" stroke-width="1.5" stroke-linecap="round" stroke-linejoin="round" fill="none"/>
<path d="M9.249 9C9.111 9 8.999 9.112 9 9.25C9 9.388 9.112 9.5 9.25 9.5C9.388 9.5 9.5 9.388 9.5 9.25C9.5 9.112 9.388 9 9.249 9" stroke="currentColor" stroke-width="1.5" stroke-linecap="round" stroke-linejoin="round" fill="none"/>
<path d="M14.749 14.5C14.611 14.5 14.499 14.612 14.5 14.75C14.5 14.888 14.612 15 14.75 15C14.888 15 15 14.888 15 14.75C15 14.612 14.888 14.5 14.749 14.5" stroke="currentColor" stroke-width="1.5" stroke-linecap="round" stroke-linejoin="round" fill="none"/>
</svg>
