<svg width="25" height="24" viewBox="0 0 25 24" fill="none" xmlns="http://www.w3.org/2000/svg">
<path d="M15.5 7H19.823C20.232 7 20.6 7.249 20.751 7.629L22.357 11.643C22.451 11.879 22.5 12.131 22.5 12.385V18.333C22.5 18.885 22.052 19.333 21.5 19.333H19.669" stroke="currentColor" stroke-width="1.5" stroke-linecap="round" stroke-linejoin="round" fill="none"/>
<path d="M16.5 19.42H8.67001" stroke="currentColor" stroke-width="1.5" stroke-linecap="round" stroke-linejoin="round" fill="none"/>
<path d="M22.5 14H18.5V10H21.7" stroke="currentColor" stroke-width="1.5" stroke-linecap="round" stroke-linejoin="round" fill="none"/>
<path d="M13.056 5H14.5C15.052 5 15.5 5.448 15.5 6V15H2.5" stroke="currentColor" stroke-width="1.5" stroke-linecap="round" stroke-linejoin="round" fill="none"/>
<path d="M19.204 18.296C19.823 18.915 19.823 19.918 19.204 20.536C18.585 21.155 17.582 21.155 16.964 20.536C16.345 19.917 16.345 18.914 16.964 18.296C17.583 17.678 18.586 17.678 19.204 18.296" stroke="currentColor" stroke-width="1.5" stroke-linecap="round" stroke-linejoin="round" fill="none"/>
<path d="M8.204 18.296C8.823 18.915 8.823 19.918 8.204 20.536C7.585 21.155 6.582 21.155 5.964 20.536C5.346 19.917 5.345 18.914 5.964 18.296C6.583 17.678 7.585 17.678 8.204 18.296" stroke="currentColor" stroke-width="1.5" stroke-linecap="round" stroke-linejoin="round" fill="none"/>
<path d="M5.5 19.416H3.5C2.948 19.416 2.5 18.968 2.5 18.416V6C2.5 5.448 2.948 5 3.5 5H4.738" stroke="currentColor" stroke-width="1.5" stroke-linecap="round" stroke-linejoin="round" fill="none"/>
<path d="M8.89701 9.318C6.60001 9.318 4.73801 7.456 4.73801 5.159C4.73801 2.909 6.65101 0.998002 8.90001 1C11.196 1.002 13.055 2.863 13.055 5.159C13.055 7.455 11.194 9.318 8.89701 9.318" stroke="currentColor" stroke-width="1.5" fill="none"/>
<path d="M10.745 4.235L8.434 6.546L7.048 5.159" stroke="currentColor" stroke-width="1.5" stroke-linecap="round" stroke-linejoin="round" fill="none"/>
</svg>
